<svg clip-rule="evenodd" fill-rule="evenodd" stroke-linejoin="round" stroke-miterlimit="2" viewBox="0 0 792 250" xmlns="http://www.w3.org/2000/svg"><path d="m0 0h791.667v250h-791.667z" fill="none"/><path d="m91.983 10.029-85.916 231.2h65.7l11.371-32.846h50.537v32.846h64.433v-231.2zm40.429 131.396h-26.533l26.533-55.592zm256.471-133.925h-102.337c-34.117 0-45.484 44.221-45.484 44.221l-24.004 137.712s-8.846 51.8 35.375 51.8h96.021l10.108-68.221h-51.8s-22.741 5.055-18.95-20.216c1.263-3.792 10.109-54.329 10.109-54.329s2.525-17.688 13.896-17.688h64.433zm30.325 1.267-48.012 232.462h63.175l21.475-98.542 5.054 98.542h34.117l37.895-98.542-18.95 98.542h56.851l46.754-233.729h-80.859l-39.171 97.283v-96.016zm183.196 232.462 44.213-233.729h130.137l-10.108 66.967h-68.221l-3.792 22.737h65.696l-10.104 50.538-66.963-1.263-3.791 22.738h66.958l-13.896 72.012zm162.979-3.783c-8.846 0-13.9-6.325-13.9-15.163 0-8.846 5.054-15.162 13.9-15.162s15.163 6.316 15.163 15.162c0 8.842-6.317 15.163-15.163 15.163zm0 5.054c11.371 0 20.217-10.108 20.217-20.217 0-11.371-8.846-20.216-20.217-20.216s-20.216 8.845-20.216 20.216c.004 10.109 8.85 20.217 20.216 20.217zm5.054-18.954c3.792 0 6.317-1.263 6.317-6.317s-3.792-6.317-8.846-6.317h-10.108v21.475h3.792v-8.845h3.791l5.054 8.845h5.055zm-8.845-2.529v-6.317h5.054c2.529 0 5.054 0 5.054 2.529 0 2.521-1.263 3.783-3.792 3.783h-6.316z" fill="#0050db"/></svg>